<svg width="40" height="40" viewBox="0 0 40 40" fill="none" xmlns="http://www.w3.org/2000/svg">
<rect x="1" y="1" width="38" height="38" rx="7" stroke="#005099" stroke-width="2"/>
<rect x="1" y="1" width="38" height="38" rx="7" stroke="#005099" stroke-width="2"/>
<rect x="1" y="1" width="38" height="38" rx="7" stroke="#005099" stroke-width="2"/>
<rect x="1" y="1" width="38" height="38" rx="7" stroke="#005099" stroke-width="2"/>
<path d="M13.874 15L15.409 22.246C15.62 23.244 16.549 23.923 17.565 23.822L24.381 23.14C25.221 23.056 25.917 22.454 26.122 21.635L27.47 16.243C27.628 15.611 27.151 15 26.5 15H18.187" stroke="#005099" stroke-width="2" stroke-linecap="round" stroke-linejoin="round"/>
<path d="M13.874 15L15.409 22.246C15.62 23.244 16.549 23.923 17.565 23.822L24.381 23.14C25.221 23.056 25.917 22.454 26.122 21.635L27.47 16.243C27.628 15.611 27.151 15 26.5 15H18.187" stroke="#005099" stroke-width="2" stroke-linecap="round" stroke-linejoin="round"/>
<path d="M13.874 15L15.409 22.246C15.62 23.244 16.549 23.923 17.565 23.822L24.381 23.14C25.221 23.056 25.917 22.454 26.122 21.635L27.47 16.243C27.628 15.611 27.151 15 26.5 15H18.187" stroke="#005099" stroke-width="2" stroke-linecap="round" stroke-linejoin="round"/>
<path d="M13.874 15L15.409 22.246C15.62 23.244 16.549 23.923 17.565 23.822L24.381 23.14C25.221 23.056 25.917 22.454 26.122 21.635L27.47 16.243C27.628 15.611 27.151 15 26.5 15H18.187" stroke="#005099" stroke-width="2" stroke-linecap="round" stroke-linejoin="round"/>
<path d="M13.874 15L13.224 12H11.5" stroke="#005099" stroke-width="2" stroke-linecap="round" stroke-linejoin="round"/>
<path d="M13.874 15L13.224 12H11.5" stroke="#005099" stroke-width="2" stroke-linecap="round" stroke-linejoin="round"/>
<path d="M13.874 15L13.224 12H11.5" stroke="#005099" stroke-width="2" stroke-linecap="round" stroke-linejoin="round"/>
<path d="M13.874 15L13.224 12H11.5" stroke="#005099" stroke-width="2" stroke-linecap="round" stroke-linejoin="round"/>
<path d="M25.109 27.2671C24.907 27.2671 24.743 27.4311 24.745 27.6331C24.745 27.8351 24.909 27.9991 25.111 27.9991C25.313 27.9991 25.477 27.8351 25.477 27.6331C25.476 27.4311 25.312 27.2671 25.109 27.2671" stroke="#005099" stroke-width="2" stroke-linecap="round" stroke-linejoin="round"/>
<path d="M25.109 27.2671C24.907 27.2671 24.743 27.4311 24.745 27.6331C24.745 27.8351 24.909 27.9991 25.111 27.9991C25.313 27.9991 25.477 27.8351 25.477 27.6331C25.476 27.4311 25.312 27.2671 25.109 27.2671" stroke="#005099" stroke-width="2" stroke-linecap="round" stroke-linejoin="round"/>
<path d="M25.109 27.2671C24.907 27.2671 24.743 27.4311 24.745 27.6331C24.745 27.8351 24.909 27.9991 25.111 27.9991C25.313 27.9991 25.477 27.8351 25.477 27.6331C25.476 27.4311 25.312 27.2671 25.109 27.2671" stroke="#005099" stroke-width="2" stroke-linecap="round" stroke-linejoin="round"/>
<path d="M25.109 27.2671C24.907 27.2671 24.743 27.4311 24.745 27.6331C24.745 27.8351 24.909 27.9991 25.111 27.9991C25.313 27.9991 25.477 27.8351 25.477 27.6331C25.476 27.4311 25.312 27.2671 25.109 27.2671" stroke="#005099" stroke-width="2" stroke-linecap="round" stroke-linejoin="round"/>
<path d="M16.697 27.267C16.495 27.267 16.331 27.431 16.333 27.633C16.331 27.836 16.496 28 16.698 28C16.9 28 17.064 27.836 17.064 27.634C17.064 27.431 16.9 27.267 16.697 27.267" stroke="#005099" stroke-width="2" stroke-linecap="round" stroke-linejoin="round"/>
<path d="M16.697 27.267C16.495 27.267 16.331 27.431 16.333 27.633C16.331 27.836 16.496 28 16.698 28C16.9 28 17.064 27.836 17.064 27.634C17.064 27.431 16.9 27.267 16.697 27.267" stroke="#005099" stroke-width="2" stroke-linecap="round" stroke-linejoin="round"/>
<path d="M16.697 27.267C16.495 27.267 16.331 27.431 16.333 27.633C16.331 27.836 16.496 28 16.698 28C16.9 28 17.064 27.836 17.064 27.634C17.064 27.431 16.9 27.267 16.697 27.267" stroke="#005099" stroke-width="2" stroke-linecap="round" stroke-linejoin="round"/>
<path d="M16.697 27.267C16.495 27.267 16.331 27.431 16.333 27.633C16.331 27.836 16.496 28 16.698 28C16.9 28 17.064 27.836 17.064 27.634C17.064 27.431 16.9 27.267 16.697 27.267" stroke="#005099" stroke-width="2" stroke-linecap="round" stroke-linejoin="round"/>
</svg>
