<svg width="20" height="20" viewBox="0 0 20 20" fill="none" xmlns="http://www.w3.org/2000/svg">
<path fill-rule="evenodd" clip-rule="evenodd" d="M4.16666 10.8333C3.70624 10.8333 3.33333 10.4604 3.33333 9.99999C3.33333 9.53957 3.70624 9.16666 4.16666 9.16666C4.62708 9.16666 4.99999 9.53957 4.99999 9.99999C4.99999 10.4604 4.62708 10.8333 4.16666 10.8333Z" fill="white" stroke="white" stroke-width="1.5" stroke-linecap="round" stroke-linejoin="round"/>
<path fill-rule="evenodd" clip-rule="evenodd" d="M9.99999 10.8333C9.53957 10.8333 9.16666 10.4604 9.16666 9.99999C9.16666 9.53957 9.53957 9.16666 9.99999 9.16666C10.4604 9.16666 10.8333 9.53957 10.8333 9.99999C10.8333 10.4604 10.4604 10.8333 9.99999 10.8333Z" fill="white" stroke="white" stroke-width="1.5" stroke-linecap="round" stroke-linejoin="round"/>
<path fill-rule="evenodd" clip-rule="evenodd" d="M15.8333 10.8333C15.3729 10.8333 15 10.4604 15 9.99999C15 9.53957 15.3729 9.16666 15.8333 9.16666C16.2937 9.16666 16.6667 9.53957 16.6667 9.99999C16.6667 10.4604 16.2937 10.8333 15.8333 10.8333Z" fill="white" stroke="white" stroke-width="1.5" stroke-linecap="round" stroke-linejoin="round"/>
<path fill-rule="evenodd" clip-rule="evenodd" d="M4.16666 16.6667C3.70624 16.6667 3.33333 16.2937 3.33333 15.8333C3.33333 15.3729 3.70624 15 4.16666 15C4.62708 15 4.99999 15.3729 4.99999 15.8333C4.99999 16.2937 4.62708 16.6667 4.16666 16.6667Z" fill="white" stroke="white" stroke-width="1.5" stroke-linecap="round" stroke-linejoin="round"/>
<path fill-rule="evenodd" clip-rule="evenodd" d="M9.99999 16.6667C9.53957 16.6667 9.16666 16.2937 9.16666 15.8333C9.16666 15.3729 9.53957 15 9.99999 15C10.4604 15 10.8333 15.3729 10.8333 15.8333C10.8333 16.2937 10.4604 16.6667 9.99999 16.6667Z" fill="white" stroke="white" stroke-width="1.5" stroke-linecap="round" stroke-linejoin="round"/>
<path fill-rule="evenodd" clip-rule="evenodd" d="M15.8333 16.6667C15.3729 16.6667 15 16.2937 15 15.8333C15 15.3729 15.3729 15 15.8333 15C16.2937 15 16.6667 15.3729 16.6667 15.8333C16.6667 16.2937 16.2937 16.6667 15.8333 16.6667Z" fill="white" stroke="white" stroke-width="1.5" stroke-linecap="round" stroke-linejoin="round"/>
<path fill-rule="evenodd" clip-rule="evenodd" d="M4.16666 4.99999C3.70624 4.99999 3.33333 4.62708 3.33333 4.16666C3.33333 3.70624 3.70624 3.33333 4.16666 3.33333C4.62708 3.33333 4.99999 3.70624 4.99999 4.16666C4.99999 4.62708 4.62708 4.99999 4.16666 4.99999Z" fill="white" stroke="white" stroke-width="1.5" stroke-linecap="round" stroke-linejoin="round"/>
<path fill-rule="evenodd" clip-rule="evenodd" d="M9.99999 4.99999C9.53957 4.99999 9.16666 4.62708 9.16666 4.16666C9.16666 3.70624 9.53957 3.33333 9.99999 3.33333C10.4604 3.33333 10.8333 3.70624 10.8333 4.16666C10.8333 4.62708 10.4604 4.99999 9.99999 4.99999Z" fill="white" stroke="white" stroke-width="1.5" stroke-linecap="round" stroke-linejoin="round"/>
<path fill-rule="evenodd" clip-rule="evenodd" d="M15.8333 4.99999C15.3729 4.99999 15 4.62708 15 4.16666C15 3.70624 15.3729 3.33333 15.8333 3.33333C16.2937 3.33333 16.6667 3.70624 16.6667 4.16666C16.6667 4.62708 16.2937 4.99999 15.8333 4.99999Z" fill="white" stroke="white" stroke-width="1.5" stroke-linecap="round" stroke-linejoin="round"/>
</svg>
