<svg width="32" height="32" viewBox="0 0 32 32" fill="none" xmlns="http://www.w3.org/2000/svg">
<path d="M7.83203 9.33333L9.8787 18.9947C10.16 20.3253 11.3987 21.2307 12.7534 21.096L21.8414 20.1867C22.9614 20.0747 23.8894 19.272 24.1627 18.18L25.96 10.9907C26.1707 10.148 25.5347 9.33333 24.6667 9.33333H13.5827" stroke="#005099" stroke-width="2" stroke-linecap="round" stroke-linejoin="round"/>
<path d="M7.83203 9.33333L9.8787 18.9947C10.16 20.3253 11.3987 21.2307 12.7534 21.096L21.8414 20.1867C22.9614 20.0747 23.8894 19.272 24.1627 18.18L25.96 10.9907C26.1707 10.148 25.5347 9.33333 24.6667 9.33333H13.5827" stroke="#005099" stroke-width="2" stroke-linecap="round" stroke-linejoin="round"/>
<path d="M7.83203 9.33333L9.8787 18.9947C10.16 20.3253 11.3987 21.2307 12.7534 21.096L21.8414 20.1867C22.9614 20.0747 23.8894 19.272 24.1627 18.18L25.96 10.9907C26.1707 10.148 25.5347 9.33333 24.6667 9.33333H13.5827" stroke="#005099" stroke-width="2" stroke-linecap="round" stroke-linejoin="round"/>
<path d="M7.83203 9.33333L9.8787 18.9947C10.16 20.3253 11.3987 21.2307 12.7534 21.096L21.8414 20.1867C22.9614 20.0747 23.8894 19.272 24.1627 18.18L25.96 10.9907C26.1707 10.148 25.5347 9.33333 24.6667 9.33333H13.5827" stroke="#005099" stroke-width="2" stroke-linecap="round" stroke-linejoin="round"/>
<path d="M7.83203 9.33333L9.8787 18.9947C10.16 20.3253 11.3987 21.2307 12.7534 21.096L21.8414 20.1867C22.9614 20.0747 23.8894 19.272 24.1627 18.18L25.96 10.9907C26.1707 10.148 25.5347 9.33333 24.6667 9.33333H13.5827" stroke="#005099" stroke-width="2" stroke-linecap="round" stroke-linejoin="round"/>
<path d="M7.83196 9.33333L6.96529 5.33333H4.66663" stroke="#005099" stroke-width="2" stroke-linecap="round" stroke-linejoin="round"/>
<path d="M7.83196 9.33333L6.96529 5.33333H4.66663" stroke="#005099" stroke-width="2" stroke-linecap="round" stroke-linejoin="round"/>
<path d="M7.83196 9.33333L6.96529 5.33333H4.66663" stroke="#005099" stroke-width="2" stroke-linecap="round" stroke-linejoin="round"/>
<path d="M7.83196 9.33333L6.96529 5.33333H4.66663" stroke="#005099" stroke-width="2" stroke-linecap="round" stroke-linejoin="round"/>
<path d="M7.83196 9.33333L6.96529 5.33333H4.66663" stroke="#005099" stroke-width="2" stroke-linecap="round" stroke-linejoin="round"/>
<path d="M22.812 25.6893C22.5426 25.6893 22.324 25.908 22.3266 26.1773C22.3266 26.4467 22.5453 26.6653 22.8146 26.6653C23.084 26.6653 23.3026 26.4467 23.3026 26.1773C23.3013 25.908 23.0826 25.6893 22.812 25.6893" stroke="#005099" stroke-width="2" stroke-linecap="round" stroke-linejoin="round"/>
<path d="M22.812 25.6893C22.5426 25.6893 22.324 25.908 22.3266 26.1773C22.3266 26.4467 22.5453 26.6653 22.8146 26.6653C23.084 26.6653 23.3026 26.4467 23.3026 26.1773C23.3013 25.908 23.0826 25.6893 22.812 25.6893" stroke="#005099" stroke-width="2" stroke-linecap="round" stroke-linejoin="round"/>
<path d="M22.812 25.6893C22.5426 25.6893 22.324 25.908 22.3266 26.1773C22.3266 26.4467 22.5453 26.6653 22.8146 26.6653C23.084 26.6653 23.3026 26.4467 23.3026 26.1773C23.3013 25.908 23.0826 25.6893 22.812 25.6893" stroke="#005099" stroke-width="2" stroke-linecap="round" stroke-linejoin="round"/>
<path d="M22.812 25.6893C22.5426 25.6893 22.324 25.908 22.3266 26.1773C22.3266 26.4467 22.5453 26.6653 22.8146 26.6653C23.084 26.6653 23.3026 26.4467 23.3026 26.1773C23.3013 25.908 23.0826 25.6893 22.812 25.6893" stroke="#005099" stroke-width="2" stroke-linecap="round" stroke-linejoin="round"/>
<path d="M22.812 25.6893C22.5426 25.6893 22.324 25.908 22.3266 26.1773C22.3266 26.4467 22.5453 26.6653 22.8146 26.6653C23.084 26.6653 23.3026 26.4467 23.3026 26.1773C23.3013 25.908 23.0826 25.6893 22.812 25.6893" stroke="#005099" stroke-width="2" stroke-linecap="round" stroke-linejoin="round"/>
<path d="M11.596 25.6893C11.3266 25.6893 11.108 25.908 11.1106 26.1773C11.108 26.448 11.328 26.6667 11.5973 26.6667C11.8666 26.6667 12.0853 26.448 12.0853 26.1787C12.0853 25.908 11.8666 25.6893 11.596 25.6893" stroke="#005099" stroke-width="2" stroke-linecap="round" stroke-linejoin="round"/>
<path d="M11.596 25.6893C11.3266 25.6893 11.108 25.908 11.1106 26.1773C11.108 26.448 11.328 26.6667 11.5973 26.6667C11.8666 26.6667 12.0853 26.448 12.0853 26.1787C12.0853 25.908 11.8666 25.6893 11.596 25.6893" stroke="#005099" stroke-width="2" stroke-linecap="round" stroke-linejoin="round"/>
<path d="M11.596 25.6893C11.3266 25.6893 11.108 25.908 11.1106 26.1773C11.108 26.448 11.328 26.6667 11.5973 26.6667C11.8666 26.6667 12.0853 26.448 12.0853 26.1787C12.0853 25.908 11.8666 25.6893 11.596 25.6893" stroke="#005099" stroke-width="2" stroke-linecap="round" stroke-linejoin="round"/>
<path d="M11.596 25.6893C11.3266 25.6893 11.108 25.908 11.1106 26.1773C11.108 26.448 11.328 26.6667 11.5973 26.6667C11.8666 26.6667 12.0853 26.448 12.0853 26.1787C12.0853 25.908 11.8666 25.6893 11.596 25.6893" stroke="#005099" stroke-width="2" stroke-linecap="round" stroke-linejoin="round"/>
<path d="M11.596 25.6893C11.3266 25.6893 11.108 25.908 11.1106 26.1773C11.108 26.448 11.328 26.6667 11.5973 26.6667C11.8666 26.6667 12.0853 26.448 12.0853 26.1787C12.0853 25.908 11.8666 25.6893 11.596 25.6893" stroke="#005099" stroke-width="2" stroke-linecap="round" stroke-linejoin="round"/>
</svg>
