<svg width="20" height="20" viewBox="0 0 20 20" fill="none" xmlns="http://www.w3.org/2000/svg">
<path fill-rule="evenodd" clip-rule="evenodd" d="M1.97951 4.72472C2.22133 3.32081 3.33723 2.28881 4.7456 2.07452C6.09505 1.86919 7.94628 1.66675 9.99996 1.66675C12.0536 1.66675 13.9049 1.86919 15.2543 2.07452C16.6627 2.28881 17.7786 3.32081 18.0204 4.72472C18.1889 5.70318 18.3333 6.94613 18.3333 8.33342C18.3333 9.72071 18.1889 10.9637 18.0204 11.9421C17.7786 13.346 16.6627 14.378 15.2543 14.5923C14.0198 14.7802 12.3653 14.9656 10.52 14.9958L5.4239 18.0071C4.86839 18.3354 4.16663 17.935 4.16663 17.2897V14.4534C3.03876 14.0783 2.18709 13.1472 1.97951 11.9421C1.81097 10.9637 1.66663 9.72071 1.66663 8.33342C1.66663 6.94613 1.81097 5.70318 1.97951 4.72472ZM4.99996 6.66675C4.99996 6.20651 5.37306 5.83342 5.83329 5.83342H14.1666C14.6269 5.83342 15 6.20651 15 6.66675C15 7.12699 14.6269 7.50008 14.1666 7.50008H5.83329C5.37306 7.50008 4.99996 7.12699 4.99996 6.66675ZM4.99996 10.0001C4.99996 9.53984 5.37306 9.16675 5.83329 9.16675H9.16663C9.62686 9.16675 9.99996 9.53984 9.99996 10.0001C9.99996 10.4603 9.62686 10.8334 9.16663 10.8334H5.83329C5.37306 10.8334 4.99996 10.4603 4.99996 10.0001Z" fill="white"/>
</svg>
