<svg width="92" height="21" viewBox="0 0 92 21" fill="none" xmlns="http://www.w3.org/2000/svg">
<path d="M0.464 20V0.559999H8.936V3.296H4.424V8.456H7.904V11.216H4.424V17.312H8.984V20H0.464ZM10.0274 20L13.7954 0.559999H18.1874L21.9314 20H18.2594L17.5634 15.728H14.4914L13.7474 20H10.0274ZM14.8514 13.304H17.1794L16.0034 5.456L14.8514 13.304ZM23.9015 20V0.559999H30.0695C31.2375 0.559999 32.1895 0.783998 32.9255 1.232C33.6615 1.664 34.2055 2.296 34.5575 3.128C34.9255 3.96 35.1095 4.968 35.1095 6.152C35.1095 7.544 34.8695 8.632 34.3895 9.416C33.9255 10.2 33.2855 10.76 32.4695 11.096C31.6535 11.416 30.7175 11.576 29.6615 11.576H27.8615V20H23.9015ZM27.8615 8.792H29.2535C29.8295 8.792 30.2695 8.704 30.5735 8.528C30.8935 8.336 31.1095 8.04 31.2215 7.64C31.3335 7.24 31.3895 6.728 31.3895 6.104C31.3895 5.512 31.3415 5.016 31.2455 4.616C31.1655 4.216 30.9735 3.904 30.6695 3.68C30.3655 3.456 29.8855 3.344 29.2295 3.344H27.8615V8.792ZM43.1437 20V0.559999H47.1037V17.312H51.6637V20H43.1437ZM58.6693 20.264C57.2453 20.264 56.1173 20.008 55.2853 19.496C54.4533 18.984 53.8533 18.256 53.4853 17.312C53.1333 16.352 52.9573 15.208 52.9573 13.88V6.632C52.9573 5.304 53.1333 4.168 53.4853 3.224C53.8533 2.28 54.4533 1.56 55.2853 1.064C56.1173 0.567999 57.2453 0.319999 58.6693 0.319999C60.1093 0.319999 61.2453 0.575999 62.0773 1.088C62.9253 1.584 63.5253 2.304 63.8773 3.248C64.2453 4.176 64.4293 5.304 64.4293 6.632V13.88C64.4293 15.208 64.2453 16.352 63.8773 17.312C63.5253 18.256 62.9253 18.984 62.0773 19.496C61.2453 20.008 60.1093 20.264 58.6693 20.264ZM58.6693 17.408C59.1813 17.408 59.5573 17.296 59.7973 17.072C60.0373 16.832 60.1973 16.52 60.2773 16.136C60.3573 15.736 60.3973 15.312 60.3973 14.864V5.672C60.3973 5.224 60.3573 4.808 60.2773 4.424C60.1973 4.04 60.0373 3.736 59.7973 3.512C59.5573 3.272 59.1813 3.152 58.6693 3.152C58.1892 3.152 57.8293 3.272 57.5893 3.512C57.3493 3.736 57.1893 4.04 57.1093 4.424C57.0293 4.808 56.9893 5.224 56.9893 5.672V14.864C56.9893 15.312 57.0213 15.736 57.0853 16.136C57.1653 16.52 57.3253 16.832 57.5653 17.072C57.8053 17.296 58.1733 17.408 58.6693 17.408ZM72.0414 20.288C70.7294 20.288 69.6894 20.016 68.9214 19.472C68.1534 18.912 67.6014 18.128 67.2654 17.12C66.9454 16.096 66.7854 14.912 66.7854 13.568V7.064C66.7854 5.672 66.9534 4.472 67.2894 3.464C67.6254 2.456 68.2094 1.68 69.0414 1.136C69.8894 0.591999 71.0334 0.319999 72.4734 0.319999C73.8654 0.319999 74.9614 0.551999 75.7614 1.016C76.5774 1.48 77.1614 2.136 77.5134 2.984C77.8654 3.832 78.0414 4.84 78.0414 6.008V7.136H74.1774V5.768C74.1774 5.256 74.1454 4.808 74.0814 4.424C74.0174 4.024 73.8654 3.712 73.6254 3.488C73.4014 3.264 73.0334 3.152 72.5214 3.152C71.9934 3.152 71.6094 3.288 71.3694 3.56C71.1294 3.832 70.9774 4.184 70.9134 4.616C70.8494 5.032 70.8174 5.48 70.8174 5.96V14.576C70.8174 15.12 70.8654 15.608 70.9614 16.04C71.0574 16.472 71.2334 16.808 71.4894 17.048C71.7614 17.288 72.1454 17.408 72.6414 17.408C73.1374 17.408 73.5214 17.28 73.7934 17.024C74.0654 16.768 74.2494 16.424 74.3454 15.992C74.4574 15.544 74.5134 15.04 74.5134 14.48V12.416H72.6174V10.016H78.0894V20H75.4974L75.2574 18.248C75.0014 18.84 74.6174 19.328 74.1054 19.712C73.5934 20.096 72.9054 20.288 72.0414 20.288ZM86.2318 20.264C84.8078 20.264 83.6798 20.008 82.8478 19.496C82.0158 18.984 81.4158 18.256 81.0478 17.312C80.6958 16.352 80.5198 15.208 80.5198 13.88V6.632C80.5198 5.304 80.6958 4.168 81.0478 3.224C81.4158 2.28 82.0158 1.56 82.8478 1.064C83.6798 0.567999 84.8078 0.319999 86.2318 0.319999C87.6718 0.319999 88.8078 0.575999 89.6398 1.088C90.4878 1.584 91.0878 2.304 91.4398 3.248C91.8078 4.176 91.9918 5.304 91.9918 6.632V13.88C91.9918 15.208 91.8078 16.352 91.4398 17.312C91.0878 18.256 90.4878 18.984 89.6398 19.496C88.8078 20.008 87.6718 20.264 86.2318 20.264ZM86.2318 17.408C86.7438 17.408 87.1198 17.296 87.3598 17.072C87.5998 16.832 87.7598 16.52 87.8398 16.136C87.9198 15.736 87.9598 15.312 87.9598 14.864V5.672C87.9598 5.224 87.9198 4.808 87.8398 4.424C87.7598 4.04 87.5998 3.736 87.3598 3.512C87.1198 3.272 86.7438 3.152 86.2318 3.152C85.7517 3.152 85.3918 3.272 85.1518 3.512C84.9118 3.736 84.7518 4.04 84.6718 4.424C84.5918 4.808 84.5518 5.224 84.5518 5.672V14.864C84.5518 15.312 84.5838 15.736 84.6478 16.136C84.7278 16.52 84.8878 16.832 85.1278 17.072C85.3678 17.296 85.7358 17.408 86.2318 17.408Z" fill="#005099"/>
</svg>
