<svg width="24" height="24" viewBox="0 0 24 24" fill="none" xmlns="http://www.w3.org/2000/svg">
<path fill-rule="evenodd" clip-rule="evenodd" d="M18.965 16.61L17.792 15.437C17.206 14.851 16.256 14.851 15.671 15.437L14.749 16.359C14.543 16.565 14.231 16.634 13.965 16.517C12.629 15.932 11.309 15.045 10.132 13.868C8.96002 12.696 8.07602 11.382 7.49002 10.051C7.36802 9.776 7.43902 9.453 7.65202 9.24L8.47802 8.414C9.14902 7.743 9.14902 6.794 8.56302 6.208L7.39002 5.035C6.60902 4.254 5.34302 4.254 4.56202 5.035L3.91002 5.686C3.16902 6.427 2.86002 7.496 3.06002 8.556C3.55402 11.169 5.07202 14.03 7.52102 16.479C9.97002 18.928 12.831 20.446 15.444 20.94C16.504 21.14 17.573 20.831 18.314 20.09L18.965 19.439C19.746 18.658 19.746 17.392 18.965 16.61V16.61Z" stroke="#005099" stroke-width="1.5" stroke-linecap="round" stroke-linejoin="round"/>
<path fill-rule="evenodd" clip-rule="evenodd" d="M18.965 16.61L17.792 15.437C17.206 14.851 16.256 14.851 15.671 15.437L14.749 16.359C14.543 16.565 14.231 16.634 13.965 16.517C12.629 15.932 11.309 15.045 10.132 13.868C8.96002 12.696 8.07602 11.382 7.49002 10.051C7.36802 9.776 7.43902 9.453 7.65202 9.24L8.47802 8.414C9.14902 7.743 9.14902 6.794 8.56302 6.208L7.39002 5.035C6.60902 4.254 5.34302 4.254 4.56202 5.035L3.91002 5.686C3.16902 6.427 2.86002 7.496 3.06002 8.556C3.55402 11.169 5.07202 14.03 7.52102 16.479C9.97002 18.928 12.831 20.446 15.444 20.94C16.504 21.14 17.573 20.831 18.314 20.09L18.965 19.439C19.746 18.658 19.746 17.392 18.965 16.61V16.61Z" stroke="#005099" stroke-width="1.5" stroke-linecap="round" stroke-linejoin="round"/>
<path fill-rule="evenodd" clip-rule="evenodd" d="M18.965 16.61L17.792 15.437C17.206 14.851 16.256 14.851 15.671 15.437L14.749 16.359C14.543 16.565 14.231 16.634 13.965 16.517C12.629 15.932 11.309 15.045 10.132 13.868C8.96002 12.696 8.07602 11.382 7.49002 10.051C7.36802 9.776 7.43902 9.453 7.65202 9.24L8.47802 8.414C9.14902 7.743 9.14902 6.794 8.56302 6.208L7.39002 5.035C6.60902 4.254 5.34302 4.254 4.56202 5.035L3.91002 5.686C3.16902 6.427 2.86002 7.496 3.06002 8.556C3.55402 11.169 5.07202 14.03 7.52102 16.479C9.97002 18.928 12.831 20.446 15.444 20.94C16.504 21.14 17.573 20.831 18.314 20.09L18.965 19.439C19.746 18.658 19.746 17.392 18.965 16.61V16.61Z" stroke="#005099" stroke-width="1.5" stroke-linecap="round" stroke-linejoin="round"/>
<path fill-rule="evenodd" clip-rule="evenodd" d="M18.965 16.61L17.792 15.437C17.206 14.851 16.256 14.851 15.671 15.437L14.749 16.359C14.543 16.565 14.231 16.634 13.965 16.517C12.629 15.932 11.309 15.045 10.132 13.868C8.96002 12.696 8.07602 11.382 7.49002 10.051C7.36802 9.776 7.43902 9.453 7.65202 9.24L8.47802 8.414C9.14902 7.743 9.14902 6.794 8.56302 6.208L7.39002 5.035C6.60902 4.254 5.34302 4.254 4.56202 5.035L3.91002 5.686C3.16902 6.427 2.86002 7.496 3.06002 8.556C3.55402 11.169 5.07202 14.03 7.52102 16.479C9.97002 18.928 12.831 20.446 15.444 20.94C16.504 21.14 17.573 20.831 18.314 20.09L18.965 19.439C19.746 18.658 19.746 17.392 18.965 16.61V16.61Z" stroke="#005099" stroke-width="1.5" stroke-linecap="round" stroke-linejoin="round"/>
<path fill-rule="evenodd" clip-rule="evenodd" d="M18.965 16.61L17.792 15.437C17.206 14.851 16.256 14.851 15.671 15.437L14.749 16.359C14.543 16.565 14.231 16.634 13.965 16.517C12.629 15.932 11.309 15.045 10.132 13.868C8.96002 12.696 8.07602 11.382 7.49002 10.051C7.36802 9.776 7.43902 9.453 7.65202 9.24L8.47802 8.414C9.14902 7.743 9.14902 6.794 8.56302 6.208L7.39002 5.035C6.60902 4.254 5.34302 4.254 4.56202 5.035L3.91002 5.686C3.16902 6.427 2.86002 7.496 3.06002 8.556C3.55402 11.169 5.07202 14.03 7.52102 16.479C9.97002 18.928 12.831 20.446 15.444 20.94C16.504 21.14 17.573 20.831 18.314 20.09L18.965 19.439C19.746 18.658 19.746 17.392 18.965 16.61V16.61Z" stroke="#005099" stroke-width="1.5" stroke-linecap="round" stroke-linejoin="round"/>
<g opacity="0.5">
<path d="M13 6.991C14.031 6.977 15.067 7.359 15.854 8.146C16.641 8.933 17.023 9.96901 17.009 11M13 2.964C15.056 2.964 17.113 3.749 18.682 5.318C20.251 6.887 21.036 8.94401 21.036 11" stroke="#005099" stroke-width="1.5" stroke-linecap="round" stroke-linejoin="round"/>
<path d="M13 6.991C14.031 6.977 15.067 7.359 15.854 8.146C16.641 8.933 17.023 9.96901 17.009 11M13 2.964C15.056 2.964 17.113 3.749 18.682 5.318C20.251 6.887 21.036 8.94401 21.036 11" stroke="#005099" stroke-width="1.5" stroke-linecap="round" stroke-linejoin="round"/>
<path d="M13 6.991C14.031 6.977 15.067 7.359 15.854 8.146C16.641 8.933 17.023 9.96901 17.009 11M13 2.964C15.056 2.964 17.113 3.749 18.682 5.318C20.251 6.887 21.036 8.94401 21.036 11" stroke="#005099" stroke-width="1.5" stroke-linecap="round" stroke-linejoin="round"/>
<path d="M13 6.991C14.031 6.977 15.067 7.359 15.854 8.146C16.641 8.933 17.023 9.96901 17.009 11M13 2.964C15.056 2.964 17.113 3.749 18.682 5.318C20.251 6.887 21.036 8.94401 21.036 11" stroke="#005099" stroke-width="1.5" stroke-linecap="round" stroke-linejoin="round"/>
<path d="M13 6.991C14.031 6.977 15.067 7.359 15.854 8.146C16.641 8.933 17.023 9.96901 17.009 11M13 2.964C15.056 2.964 17.113 3.749 18.682 5.318C20.251 6.887 21.036 8.94401 21.036 11" stroke="#005099" stroke-width="1.5" stroke-linecap="round" stroke-linejoin="round"/>
</g>
</svg>
