<svg width="24" height="24" viewBox="0 0 24 24" fill="none" xmlns="http://www.w3.org/2000/svg">
<path d="M12 14.5C15.4706 14.5 17.4641 15.3527 18.5932 16.2164C19.8076 17.1453 20 18.775 20 20.3039C20 21.2406 19.2406 22 18.3039 22H5.69607C4.75936 22 4 21.2406 4 20.3039C4 18.775 4.19243 17.1453 5.40682 16.2164C6.53589 15.3527 8.52943 14.5 12 14.5Z" fill="#005099" fill-opacity="0.1"/>
<path d="M12 14.5C15.4706 14.5 17.4641 15.3527 18.5932 16.2164C19.8076 17.1453 20 18.775 20 20.3039C20 21.2406 19.2406 22 18.3039 22H5.69607C4.75936 22 4 21.2406 4 20.3039C4 18.775 4.19243 17.1453 5.40682 16.2164C6.53589 15.3527 8.52943 14.5 12 14.5Z" stroke="#005099" stroke-width="1.5" stroke-linecap="round" stroke-linejoin="round"/>
<path d="M12 14.5C15.4706 14.5 17.4641 15.3527 18.5932 16.2164C19.8076 17.1453 20 18.775 20 20.3039C20 21.2406 19.2406 22 18.3039 22H5.69607C4.75936 22 4 21.2406 4 20.3039C4 18.775 4.19243 17.1453 5.40682 16.2164C6.53589 15.3527 8.52943 14.5 12 14.5Z" stroke="#005099" stroke-width="1.5" stroke-linecap="round" stroke-linejoin="round"/>
<path d="M12 14.5C15.4706 14.5 17.4641 15.3527 18.5932 16.2164C19.8076 17.1453 20 18.775 20 20.3039C20 21.2406 19.2406 22 18.3039 22H5.69607C4.75936 22 4 21.2406 4 20.3039C4 18.775 4.19243 17.1453 5.40682 16.2164C6.53589 15.3527 8.52943 14.5 12 14.5Z" stroke="#005099" stroke-width="1.5" stroke-linecap="round" stroke-linejoin="round"/>
<path d="M12 14.5C15.4706 14.5 17.4641 15.3527 18.5932 16.2164C19.8076 17.1453 20 18.775 20 20.3039C20 21.2406 19.2406 22 18.3039 22H5.69607C4.75936 22 4 21.2406 4 20.3039C4 18.775 4.19243 17.1453 5.40682 16.2164C6.53589 15.3527 8.52943 14.5 12 14.5Z" stroke="#005099" stroke-width="1.5" stroke-linecap="round" stroke-linejoin="round"/>
<path d="M12 14.5C15.4706 14.5 17.4641 15.3527 18.5932 16.2164C19.8076 17.1453 20 18.775 20 20.3039C20 21.2406 19.2406 22 18.3039 22H5.69607C4.75936 22 4 21.2406 4 20.3039C4 18.775 4.19243 17.1453 5.40682 16.2164C6.53589 15.3527 8.52943 14.5 12 14.5Z" stroke="#005099" stroke-width="1.5" stroke-linecap="round" stroke-linejoin="round"/>
<circle cx="12" cy="7" r="4" stroke="#005099" stroke-width="1.5"/>
<circle cx="12" cy="7" r="4" stroke="#005099" stroke-width="1.5"/>
<circle cx="12" cy="7" r="4" stroke="#005099" stroke-width="1.5"/>
<circle cx="12" cy="7" r="4" stroke="#005099" stroke-width="1.5"/>
<circle cx="12" cy="7" r="4" stroke="#005099" stroke-width="1.5"/>
</svg>
