<svg width="48" height="48" viewBox="0 0 48 48" fill="none" xmlns="http://www.w3.org/2000/svg">
<g clip-path="url(#clip0_1_5922)">
<path fill-rule="evenodd" clip-rule="evenodd" d="M43.942 23.942C43.942 12.928 35.014 4 24 4V11.976C30.608 11.976 35.966 17.332 35.966 23.942H43.942Z" stroke="#005099" stroke-width="2" stroke-linecap="round" stroke-linejoin="round"/>
<path fill-rule="evenodd" clip-rule="evenodd" d="M43.942 23.942C43.942 12.928 35.014 4 24 4V11.976C30.608 11.976 35.966 17.332 35.966 23.942H43.942Z" stroke="#005099" stroke-width="2" stroke-linecap="round" stroke-linejoin="round"/>
<path fill-rule="evenodd" clip-rule="evenodd" d="M43.942 23.942C43.942 12.928 35.014 4 24 4V11.976C30.608 11.976 35.966 17.332 35.966 23.942H43.942Z" stroke="#005099" stroke-width="2" stroke-linecap="round" stroke-linejoin="round"/>
<path fill-rule="evenodd" clip-rule="evenodd" d="M43.942 23.942C43.942 12.928 35.014 4 24 4V11.976C30.608 11.976 35.966 17.332 35.966 23.942H43.942Z" stroke="#005099" stroke-width="2" stroke-linecap="round" stroke-linejoin="round"/>
<path d="M39.842 23.942V25.05C39.842 34.412 32.254 42 22.892 42C13.53 42 5.94199 34.412 5.94199 25.05C5.94199 15.688 13.53 8.09998 22.892 8.09998H24" stroke="#005099" stroke-width="2" stroke-linecap="round" stroke-linejoin="round"/>
<path d="M39.842 23.942V25.05C39.842 34.412 32.254 42 22.892 42C13.53 42 5.94199 34.412 5.94199 25.05C5.94199 15.688 13.53 8.09998 22.892 8.09998H24" stroke="#005099" stroke-width="2" stroke-linecap="round" stroke-linejoin="round"/>
<path d="M39.842 23.942V25.05C39.842 34.412 32.254 42 22.892 42C13.53 42 5.94199 34.412 5.94199 25.05C5.94199 15.688 13.53 8.09998 22.892 8.09998H24" stroke="#005099" stroke-width="2" stroke-linecap="round" stroke-linejoin="round"/>
<path d="M39.842 23.942V25.05C39.842 34.412 32.254 42 22.892 42C13.53 42 5.94199 34.412 5.94199 25.05C5.94199 15.688 13.53 8.09998 22.892 8.09998H24" stroke="#005099" stroke-width="2" stroke-linecap="round" stroke-linejoin="round"/>
<path d="M27.3566 20.5854C29.8224 23.0512 29.8224 27.049 27.3566 29.5148C24.8908 31.9805 20.893 31.9805 18.4272 29.5148C15.9615 27.049 15.9615 23.0512 18.4272 20.5854C20.893 18.1196 24.8908 18.1196 27.3566 20.5854" stroke="#005099" stroke-width="2" stroke-linecap="round" stroke-linejoin="round"/>
<path d="M27.3566 20.5854C29.8224 23.0512 29.8224 27.049 27.3566 29.5148C24.8908 31.9805 20.893 31.9805 18.4272 29.5148C15.9615 27.049 15.9615 23.0512 18.4272 20.5854C20.893 18.1196 24.8908 18.1196 27.3566 20.5854" stroke="#005099" stroke-width="2" stroke-linecap="round" stroke-linejoin="round"/>
<path d="M27.3566 20.5854C29.8224 23.0512 29.8224 27.049 27.3566 29.5148C24.8908 31.9805 20.893 31.9805 18.4272 29.5148C15.9615 27.049 15.9615 23.0512 18.4272 20.5854C20.893 18.1196 24.8908 18.1196 27.3566 20.5854" stroke="#005099" stroke-width="2" stroke-linecap="round" stroke-linejoin="round"/>
<path d="M27.3566 20.5854C29.8224 23.0512 29.8224 27.049 27.3566 29.5148C24.8908 31.9805 20.893 31.9805 18.4272 29.5148C15.9615 27.049 15.9615 23.0512 18.4272 20.5854C20.893 18.1196 24.8908 18.1196 27.3566 20.5854" stroke="#005099" stroke-width="2" stroke-linecap="round" stroke-linejoin="round"/>
</g>
<defs>
<clipPath id="clip0_1_5922">
<rect width="48" height="48" fill="white"/>
</clipPath>
</defs>
</svg>
