<svg width="48" height="48" viewBox="0 0 48 48" fill="none" xmlns="http://www.w3.org/2000/svg">
<g clip-path="url(#clip0_1_7642)">
<path d="M2 18V34" stroke="#005099" stroke-width="2" stroke-linecap="round" stroke-linejoin="round"/>
<path d="M2 18V34" stroke="#005099" stroke-width="2" stroke-linecap="round" stroke-linejoin="round"/>
<path d="M2 18V34" stroke="#005099" stroke-width="2" stroke-linecap="round" stroke-linejoin="round"/>
<path d="M2 18V34" stroke="#005099" stroke-width="2" stroke-linecap="round" stroke-linejoin="round"/>
<path d="M24 6V14" stroke="#005099" stroke-width="2" stroke-linecap="round" stroke-linejoin="round"/>
<path d="M24 6V14" stroke="#005099" stroke-width="2" stroke-linecap="round" stroke-linejoin="round"/>
<path d="M24 6V14" stroke="#005099" stroke-width="2" stroke-linecap="round" stroke-linejoin="round"/>
<path d="M24 6V14" stroke="#005099" stroke-width="2" stroke-linecap="round" stroke-linejoin="round"/>
<path d="M18 6H30" stroke="#005099" stroke-width="2" stroke-linecap="round" stroke-linejoin="round"/>
<path d="M18 6H30" stroke="#005099" stroke-width="2" stroke-linecap="round" stroke-linejoin="round"/>
<path d="M18 6H30" stroke="#005099" stroke-width="2" stroke-linecap="round" stroke-linejoin="round"/>
<path d="M18 6H30" stroke="#005099" stroke-width="2" stroke-linecap="round" stroke-linejoin="round"/>
<path fill-rule="evenodd" clip-rule="evenodd" d="M40 18V22H36L32 14H16L12 18H8V34H14L17.448 40.894C17.786 41.572 18.478 42 19.236 42H32C33.104 42 34 41.104 34 40V34H40V38H44C45.104 38 46 37.104 46 36V20C46 18.896 45.104 18 44 18H40Z" stroke="#005099" stroke-width="2" stroke-linecap="round" stroke-linejoin="round"/>
<path fill-rule="evenodd" clip-rule="evenodd" d="M40 18V22H36L32 14H16L12 18H8V34H14L17.448 40.894C17.786 41.572 18.478 42 19.236 42H32C33.104 42 34 41.104 34 40V34H40V38H44C45.104 38 46 37.104 46 36V20C46 18.896 45.104 18 44 18H40Z" stroke="#005099" stroke-width="2" stroke-linecap="round" stroke-linejoin="round"/>
<path fill-rule="evenodd" clip-rule="evenodd" d="M40 18V22H36L32 14H16L12 18H8V34H14L17.448 40.894C17.786 41.572 18.478 42 19.236 42H32C33.104 42 34 41.104 34 40V34H40V38H44C45.104 38 46 37.104 46 36V20C46 18.896 45.104 18 44 18H40Z" stroke="#005099" stroke-width="2" stroke-linecap="round" stroke-linejoin="round"/>
<path fill-rule="evenodd" clip-rule="evenodd" d="M40 18V22H36L32 14H16L12 18H8V34H14L17.448 40.894C17.786 41.572 18.478 42 19.236 42H32C33.104 42 34 41.104 34 40V34H40V38H44C45.104 38 46 37.104 46 36V20C46 18.896 45.104 18 44 18H40Z" stroke="#005099" stroke-width="2" stroke-linecap="round" stroke-linejoin="round"/>
<path d="M8 26H2" stroke="#005099" stroke-width="2" stroke-linecap="round" stroke-linejoin="round"/>
<path d="M8 26H2" stroke="#005099" stroke-width="2" stroke-linecap="round" stroke-linejoin="round"/>
<path d="M8 26H2" stroke="#005099" stroke-width="2" stroke-linecap="round" stroke-linejoin="round"/>
<path d="M8 26H2" stroke="#005099" stroke-width="2" stroke-linecap="round" stroke-linejoin="round"/>
</g>
<defs>
<clipPath id="clip0_1_7642">
<rect width="48" height="48" fill="white"/>
</clipPath>
</defs>
</svg>
