<svg width="48" height="48" viewBox="0 0 48 48" fill="none" xmlns="http://www.w3.org/2000/svg">
<path fill-rule="evenodd" clip-rule="evenodd" d="M7.73601 24.708L10.564 21.88C12.126 20.318 14.658 20.318 16.22 21.88L26.12 31.78C27.682 33.342 27.682 35.874 26.12 37.436L23.292 40.264C21.73 41.826 19.198 41.826 17.636 40.264L7.73601 30.364C6.17401 28.802 6.17401 26.27 7.73601 24.708V24.708Z" stroke="#005099" stroke-width="2" stroke-linecap="round" stroke-linejoin="round"/>
<path fill-rule="evenodd" clip-rule="evenodd" d="M7.73601 24.708L10.564 21.88C12.126 20.318 14.658 20.318 16.22 21.88L26.12 31.78C27.682 33.342 27.682 35.874 26.12 37.436L23.292 40.264C21.73 41.826 19.198 41.826 17.636 40.264L7.73601 30.364C6.17401 28.802 6.17401 26.27 7.73601 24.708V24.708Z" stroke="#005099" stroke-width="2" stroke-linecap="round" stroke-linejoin="round"/>
<path fill-rule="evenodd" clip-rule="evenodd" d="M7.73601 24.708L10.564 21.88C12.126 20.318 14.658 20.318 16.22 21.88L26.12 31.78C27.682 33.342 27.682 35.874 26.12 37.436L23.292 40.264C21.73 41.826 19.198 41.826 17.636 40.264L7.73601 30.364C6.17401 28.802 6.17401 26.27 7.73601 24.708V24.708Z" stroke="#005099" stroke-width="2" stroke-linecap="round" stroke-linejoin="round"/>
<path fill-rule="evenodd" clip-rule="evenodd" d="M7.73601 24.708L10.564 21.88C12.126 20.318 14.658 20.318 16.22 21.88L26.12 31.78C27.682 33.342 27.682 35.874 26.12 37.436L23.292 40.264C21.73 41.826 19.198 41.826 17.636 40.264L7.73601 30.364C6.17401 28.802 6.17401 26.27 7.73601 24.708V24.708Z" stroke="#005099" stroke-width="2" stroke-linecap="round" stroke-linejoin="round"/>
<path d="M9.14002 31.78L4.90002 36.02" stroke="#005099" stroke-width="2" stroke-linecap="round" stroke-linejoin="round"/>
<path d="M9.14002 31.78L4.90002 36.02" stroke="#005099" stroke-width="2" stroke-linecap="round" stroke-linejoin="round"/>
<path d="M9.14002 31.78L4.90002 36.02" stroke="#005099" stroke-width="2" stroke-linecap="round" stroke-linejoin="round"/>
<path d="M9.14002 31.78L4.90002 36.02" stroke="#005099" stroke-width="2" stroke-linecap="round" stroke-linejoin="round"/>
<path d="M12.52 43.62L16.76 39.38" stroke="#005099" stroke-width="2" stroke-linecap="round" stroke-linejoin="round"/>
<path d="M12.52 43.62L16.76 39.38" stroke="#005099" stroke-width="2" stroke-linecap="round" stroke-linejoin="round"/>
<path d="M12.52 43.62L16.76 39.38" stroke="#005099" stroke-width="2" stroke-linecap="round" stroke-linejoin="round"/>
<path d="M12.52 43.62L16.76 39.38" stroke="#005099" stroke-width="2" stroke-linecap="round" stroke-linejoin="round"/>
<path d="M33.192 7.73597L30.364 4.90797C29.582 4.12597 28.316 4.12597 27.536 4.90797L25.294 7.14997C24.918 7.52597 24.708 8.03397 24.708 8.56397V13.392L21.88 16.22C21.098 17.002 21.098 18.268 21.88 19.048L28.952 26.12C29.734 26.902 31 26.902 31.78 26.12L34.608 23.292H39.436C39.966 23.292 40.476 23.082 40.85 22.706L43.092 20.464C43.874 19.682 43.874 18.416 43.092 17.636L40.264 14.808" stroke="#005099" stroke-width="2" stroke-linecap="round" stroke-linejoin="round"/>
<path d="M33.192 7.73597L30.364 4.90797C29.582 4.12597 28.316 4.12597 27.536 4.90797L25.294 7.14997C24.918 7.52597 24.708 8.03397 24.708 8.56397V13.392L21.88 16.22C21.098 17.002 21.098 18.268 21.88 19.048L28.952 26.12C29.734 26.902 31 26.902 31.78 26.12L34.608 23.292H39.436C39.966 23.292 40.476 23.082 40.85 22.706L43.092 20.464C43.874 19.682 43.874 18.416 43.092 17.636L40.264 14.808" stroke="#005099" stroke-width="2" stroke-linecap="round" stroke-linejoin="round"/>
<path d="M33.192 7.73597L30.364 4.90797C29.582 4.12597 28.316 4.12597 27.536 4.90797L25.294 7.14997C24.918 7.52597 24.708 8.03397 24.708 8.56397V13.392L21.88 16.22C21.098 17.002 21.098 18.268 21.88 19.048L28.952 26.12C29.734 26.902 31 26.902 31.78 26.12L34.608 23.292H39.436C39.966 23.292 40.476 23.082 40.85 22.706L43.092 20.464C43.874 19.682 43.874 18.416 43.092 17.636L40.264 14.808" stroke="#005099" stroke-width="2" stroke-linecap="round" stroke-linejoin="round"/>
<path d="M33.192 7.73597L30.364 4.90797C29.582 4.12597 28.316 4.12597 27.536 4.90797L25.294 7.14997C24.918 7.52597 24.708 8.03397 24.708 8.56397V13.392L21.88 16.22C21.098 17.002 21.098 18.268 21.88 19.048L28.952 26.12C29.734 26.902 31 26.902 31.78 26.12L34.608 23.292H39.436C39.966 23.292 40.476 23.082 40.85 22.706L43.092 20.464C43.874 19.682 43.874 18.416 43.092 17.636L40.264 14.808" stroke="#005099" stroke-width="2" stroke-linecap="round" stroke-linejoin="round"/>
<path d="M30.5 19.5L28.5 17.5" stroke="#005099" stroke-width="2" stroke-linecap="round" stroke-linejoin="round"/>
<path d="M30.5 19.5L28.5 17.5" stroke="#005099" stroke-width="2" stroke-linecap="round" stroke-linejoin="round"/>
<path d="M30.5 19.5L28.5 17.5" stroke="#005099" stroke-width="2" stroke-linecap="round" stroke-linejoin="round"/>
<path d="M30.5 19.5L28.5 17.5" stroke="#005099" stroke-width="2" stroke-linecap="round" stroke-linejoin="round"/>
<path d="M32 44V42" stroke="#005099" stroke-width="2" stroke-linecap="round" stroke-linejoin="round"/>
<path d="M32 44V42" stroke="#005099" stroke-width="2" stroke-linecap="round" stroke-linejoin="round"/>
<path d="M32 44V42" stroke="#005099" stroke-width="2" stroke-linecap="round" stroke-linejoin="round"/>
<path d="M32 44V42" stroke="#005099" stroke-width="2" stroke-linecap="round" stroke-linejoin="round"/>
<path d="M44 32H42" stroke="#005099" stroke-width="2" stroke-linecap="round" stroke-linejoin="round"/>
<path d="M44 32H42" stroke="#005099" stroke-width="2" stroke-linecap="round" stroke-linejoin="round"/>
<path d="M44 32H42" stroke="#005099" stroke-width="2" stroke-linecap="round" stroke-linejoin="round"/>
<path d="M44 32H42" stroke="#005099" stroke-width="2" stroke-linecap="round" stroke-linejoin="round"/>
<path d="M42 42L40 40" stroke="#005099" stroke-width="2" stroke-linecap="round" stroke-linejoin="round"/>
<path d="M42 42L40 40" stroke="#005099" stroke-width="2" stroke-linecap="round" stroke-linejoin="round"/>
<path d="M42 42L40 40" stroke="#005099" stroke-width="2" stroke-linecap="round" stroke-linejoin="round"/>
<path d="M42 42L40 40" stroke="#005099" stroke-width="2" stroke-linecap="round" stroke-linejoin="round"/>
<path d="M16 4V6" stroke="#005099" stroke-width="2" stroke-linecap="round" stroke-linejoin="round"/>
<path d="M16 4V6" stroke="#005099" stroke-width="2" stroke-linecap="round" stroke-linejoin="round"/>
<path d="M16 4V6" stroke="#005099" stroke-width="2" stroke-linecap="round" stroke-linejoin="round"/>
<path d="M16 4V6" stroke="#005099" stroke-width="2" stroke-linecap="round" stroke-linejoin="round"/>
<path d="M4 16H6" stroke="#005099" stroke-width="2" stroke-linecap="round" stroke-linejoin="round"/>
<path d="M4 16H6" stroke="#005099" stroke-width="2" stroke-linecap="round" stroke-linejoin="round"/>
<path d="M4 16H6" stroke="#005099" stroke-width="2" stroke-linecap="round" stroke-linejoin="round"/>
<path d="M4 16H6" stroke="#005099" stroke-width="2" stroke-linecap="round" stroke-linejoin="round"/>
<path d="M6 6L8 8" stroke="#005099" stroke-width="2" stroke-linecap="round" stroke-linejoin="round"/>
<path d="M6 6L8 8" stroke="#005099" stroke-width="2" stroke-linecap="round" stroke-linejoin="round"/>
<path d="M6 6L8 8" stroke="#005099" stroke-width="2" stroke-linecap="round" stroke-linejoin="round"/>
<path d="M6 6L8 8" stroke="#005099" stroke-width="2" stroke-linecap="round" stroke-linejoin="round"/>
<path d="M15 29L19 33" stroke="#005099" stroke-width="2" stroke-linecap="round" stroke-linejoin="round"/>
<path d="M15 29L19 33" stroke="#005099" stroke-width="2" stroke-linecap="round" stroke-linejoin="round"/>
<path d="M15 29L19 33" stroke="#005099" stroke-width="2" stroke-linecap="round" stroke-linejoin="round"/>
<path d="M15 29L19 33" stroke="#005099" stroke-width="2" stroke-linecap="round" stroke-linejoin="round"/>
<path d="M43.092 11.98L38.85 16.222C38.068 17.004 36.802 17.004 36.022 16.222L31.778 11.98C30.996 11.198 30.996 9.93197 31.778 9.15197L36.02 4.90997" stroke="#005099" stroke-width="2" stroke-linecap="round" stroke-linejoin="round"/>
<path d="M43.092 11.98L38.85 16.222C38.068 17.004 36.802 17.004 36.022 16.222L31.778 11.98C30.996 11.198 30.996 9.93197 31.778 9.15197L36.02 4.90997" stroke="#005099" stroke-width="2" stroke-linecap="round" stroke-linejoin="round"/>
<path d="M43.092 11.98L38.85 16.222C38.068 17.004 36.802 17.004 36.022 16.222L31.778 11.98C30.996 11.198 30.996 9.93197 31.778 9.15197L36.02 4.90997" stroke="#005099" stroke-width="2" stroke-linecap="round" stroke-linejoin="round"/>
<path d="M43.092 11.98L38.85 16.222C38.068 17.004 36.802 17.004 36.022 16.222L31.778 11.98C30.996 11.198 30.996 9.93197 31.778 9.15197L36.02 4.90997" stroke="#005099" stroke-width="2" stroke-linecap="round" stroke-linejoin="round"/>
</svg>
