<svg width="48" height="48" viewBox="0 0 48 48" fill="none" xmlns="http://www.w3.org/2000/svg">
<g clip-path="url(#clip0_1_7298)">
<path fill-rule="evenodd" clip-rule="evenodd" d="M28.0977 32.1534V32.1534C26.8283 32.3651 25.5301 32.0076 24.548 31.1759C23.566 30.3442 22.9996 29.1225 22.9996 27.8356V20.1644C22.9996 18.8774 23.566 17.6558 24.548 16.824C25.5301 15.9923 26.8283 15.6348 28.0977 15.8466V15.8466C32.0835 16.5107 35.0048 19.9592 35.0046 24V24C35.0048 28.0407 32.0835 31.4892 28.0977 32.1534V32.1534Z" stroke="#005099" stroke-width="2" stroke-linecap="round" stroke-linejoin="round"/>
<path fill-rule="evenodd" clip-rule="evenodd" d="M28.0977 32.1534V32.1534C26.8283 32.3651 25.5301 32.0076 24.548 31.1759C23.566 30.3442 22.9996 29.1225 22.9996 27.8356V20.1644C22.9996 18.8774 23.566 17.6558 24.548 16.824C25.5301 15.9923 26.8283 15.6348 28.0977 15.8466V15.8466C32.0835 16.5107 35.0048 19.9592 35.0046 24V24C35.0048 28.0407 32.0835 31.4892 28.0977 32.1534V32.1534Z" stroke="#005099" stroke-width="2" stroke-linecap="round" stroke-linejoin="round"/>
<path fill-rule="evenodd" clip-rule="evenodd" d="M28.0977 32.1534V32.1534C26.8283 32.3651 25.5301 32.0076 24.548 31.1759C23.566 30.3442 22.9996 29.1225 22.9996 27.8356V20.1644C22.9996 18.8774 23.566 17.6558 24.548 16.824C25.5301 15.9923 26.8283 15.6348 28.0977 15.8466V15.8466C32.0835 16.5107 35.0048 19.9592 35.0046 24V24C35.0048 28.0407 32.0835 31.4892 28.0977 32.1534V32.1534Z" stroke="#005099" stroke-width="2" stroke-linecap="round" stroke-linejoin="round"/>
<path fill-rule="evenodd" clip-rule="evenodd" d="M28.0977 32.1534V32.1534C26.8283 32.3651 25.5301 32.0076 24.548 31.1759C23.566 30.3442 22.9996 29.1225 22.9996 27.8356V20.1644C22.9996 18.8774 23.566 17.6558 24.548 16.824C25.5301 15.9923 26.8283 15.6348 28.0977 15.8466V15.8466C32.0835 16.5107 35.0048 19.9592 35.0046 24V24C35.0048 28.0407 32.0835 31.4892 28.0977 32.1534V32.1534Z" stroke="#005099" stroke-width="2" stroke-linecap="round" stroke-linejoin="round"/>
<path d="M13.9958 19.9983L17.9975 18.9979" stroke="#005099" stroke-width="2" stroke-linecap="round" stroke-linejoin="round"/>
<path d="M13.9958 19.9983L17.9975 18.9979" stroke="#005099" stroke-width="2" stroke-linecap="round" stroke-linejoin="round"/>
<path d="M13.9958 19.9983L17.9975 18.9979" stroke="#005099" stroke-width="2" stroke-linecap="round" stroke-linejoin="round"/>
<path d="M13.9958 19.9983L17.9975 18.9979" stroke="#005099" stroke-width="2" stroke-linecap="round" stroke-linejoin="round"/>
<path d="M13.9958 25.0004L17.9975 24" stroke="#005099" stroke-width="2" stroke-linecap="round" stroke-linejoin="round"/>
<path d="M13.9958 25.0004L17.9975 24" stroke="#005099" stroke-width="2" stroke-linecap="round" stroke-linejoin="round"/>
<path d="M13.9958 25.0004L17.9975 24" stroke="#005099" stroke-width="2" stroke-linecap="round" stroke-linejoin="round"/>
<path d="M13.9958 25.0004L17.9975 24" stroke="#005099" stroke-width="2" stroke-linecap="round" stroke-linejoin="round"/>
<path fill-rule="evenodd" clip-rule="evenodd" d="M24 42.0074V42.0074C14.0547 42.0074 5.99249 33.9452 5.99249 23.9999V23.9999C5.99249 14.0547 14.0547 5.99243 24 5.99243V5.99243C33.9453 5.99243 42.0075 14.0547 42.0075 23.9999V23.9999C42.0075 33.9452 33.9453 42.0074 24 42.0074V42.0074Z" stroke="#005099" stroke-width="2" stroke-linecap="round" stroke-linejoin="round"/>
<path fill-rule="evenodd" clip-rule="evenodd" d="M24 42.0074V42.0074C14.0547 42.0074 5.99249 33.9452 5.99249 23.9999V23.9999C5.99249 14.0547 14.0547 5.99243 24 5.99243V5.99243C33.9453 5.99243 42.0075 14.0547 42.0075 23.9999V23.9999C42.0075 33.9452 33.9453 42.0074 24 42.0074V42.0074Z" stroke="#005099" stroke-width="2" stroke-linecap="round" stroke-linejoin="round"/>
<path fill-rule="evenodd" clip-rule="evenodd" d="M24 42.0074V42.0074C14.0547 42.0074 5.99249 33.9452 5.99249 23.9999V23.9999C5.99249 14.0547 14.0547 5.99243 24 5.99243V5.99243C33.9453 5.99243 42.0075 14.0547 42.0075 23.9999V23.9999C42.0075 33.9452 33.9453 42.0074 24 42.0074V42.0074Z" stroke="#005099" stroke-width="2" stroke-linecap="round" stroke-linejoin="round"/>
<path fill-rule="evenodd" clip-rule="evenodd" d="M24 42.0074V42.0074C14.0547 42.0074 5.99249 33.9452 5.99249 23.9999V23.9999C5.99249 14.0547 14.0547 5.99243 24 5.99243V5.99243C33.9453 5.99243 42.0075 14.0547 42.0075 23.9999V23.9999C42.0075 33.9452 33.9453 42.0074 24 42.0074V42.0074Z" stroke="#005099" stroke-width="2" stroke-linecap="round" stroke-linejoin="round"/>
<path d="M13.9958 30.0025L17.9975 29.002" stroke="#005099" stroke-width="2" stroke-linecap="round" stroke-linejoin="round"/>
<path d="M13.9958 30.0025L17.9975 29.002" stroke="#005099" stroke-width="2" stroke-linecap="round" stroke-linejoin="round"/>
<path d="M13.9958 30.0025L17.9975 29.002" stroke="#005099" stroke-width="2" stroke-linecap="round" stroke-linejoin="round"/>
<path d="M13.9958 30.0025L17.9975 29.002" stroke="#005099" stroke-width="2" stroke-linecap="round" stroke-linejoin="round"/>
</g>
<defs>
<clipPath id="clip0_1_7298">
<rect width="48" height="48" fill="white"/>
</clipPath>
</defs>
</svg>
