<svg width="48" height="48" viewBox="0 0 48 48" fill="none" xmlns="http://www.w3.org/2000/svg">
<path d="M15 26L24 44" stroke="#005099" stroke-width="2" stroke-linecap="round" stroke-linejoin="round"/>
<path d="M15 26L24 44" stroke="#005099" stroke-width="2" stroke-linecap="round" stroke-linejoin="round"/>
<path d="M15 26L24 44" stroke="#005099" stroke-width="2" stroke-linecap="round" stroke-linejoin="round"/>
<path d="M15 26L24 44" stroke="#005099" stroke-width="2" stroke-linecap="round" stroke-linejoin="round"/>
<path fill-rule="evenodd" clip-rule="evenodd" d="M42.578 22.946L34.95 38.2C34.476 39.15 33.336 39.574 32.372 39.132C29.656 37.886 26.726 37.282 23.796 37.28C20.866 37.282 17.936 37.886 15.22 39.132C14.254 39.574 13.114 39.15 12.64 38.2L5.01399 22.946C4.52999 21.98 4.88999 20.774 5.84999 20.282C11.47 17.4 17.63 16.002 23.794 16C29.958 16.002 36.118 17.4 41.74 20.282C42.702 20.776 43.06 21.98 42.578 22.946Z" stroke="#005099" stroke-width="2" stroke-linecap="round" stroke-linejoin="round"/>
<path fill-rule="evenodd" clip-rule="evenodd" d="M42.578 22.946L34.95 38.2C34.476 39.15 33.336 39.574 32.372 39.132C29.656 37.886 26.726 37.282 23.796 37.28C20.866 37.282 17.936 37.886 15.22 39.132C14.254 39.574 13.114 39.15 12.64 38.2L5.01399 22.946C4.52999 21.98 4.88999 20.774 5.84999 20.282C11.47 17.4 17.63 16.002 23.794 16C29.958 16.002 36.118 17.4 41.74 20.282C42.702 20.776 43.06 21.98 42.578 22.946Z" stroke="#005099" stroke-width="2" stroke-linecap="round" stroke-linejoin="round"/>
<path fill-rule="evenodd" clip-rule="evenodd" d="M42.578 22.946L34.95 38.2C34.476 39.15 33.336 39.574 32.372 39.132C29.656 37.886 26.726 37.282 23.796 37.28C20.866 37.282 17.936 37.886 15.22 39.132C14.254 39.574 13.114 39.15 12.64 38.2L5.01399 22.946C4.52999 21.98 4.88999 20.774 5.84999 20.282C11.47 17.4 17.63 16.002 23.794 16C29.958 16.002 36.118 17.4 41.74 20.282C42.702 20.776 43.06 21.98 42.578 22.946Z" stroke="#005099" stroke-width="2" stroke-linecap="round" stroke-linejoin="round"/>
<path fill-rule="evenodd" clip-rule="evenodd" d="M42.578 22.946L34.95 38.2C34.476 39.15 33.336 39.574 32.372 39.132C29.656 37.886 26.726 37.282 23.796 37.28C20.866 37.282 17.936 37.886 15.22 39.132C14.254 39.574 13.114 39.15 12.64 38.2L5.01399 22.946C4.52999 21.98 4.88999 20.774 5.84999 20.282C11.47 17.4 17.63 16.002 23.794 16C29.958 16.002 36.118 17.4 41.74 20.282C42.702 20.776 43.06 21.98 42.578 22.946Z" stroke="#005099" stroke-width="2" stroke-linecap="round" stroke-linejoin="round"/>
<path d="M24 9.99993C24 9.66793 23.97 9.33393 23.91 9.00593" stroke="#005099" stroke-width="2" stroke-linecap="round" stroke-linejoin="round"/>
<path d="M24 9.99993C24 9.66793 23.97 9.33393 23.91 9.00593" stroke="#005099" stroke-width="2" stroke-linecap="round" stroke-linejoin="round"/>
<path d="M24 9.99993C24 9.66793 23.97 9.33393 23.91 9.00593" stroke="#005099" stroke-width="2" stroke-linecap="round" stroke-linejoin="round"/>
<path d="M24 9.99993C24 9.66793 23.97 9.33393 23.91 9.00593" stroke="#005099" stroke-width="2" stroke-linecap="round" stroke-linejoin="round"/>
<path d="M24.09 9.00593C24.03 9.33393 24 9.66793 24 9.99993" stroke="#005099" stroke-width="2" stroke-linecap="round" stroke-linejoin="round"/>
<path d="M24.09 9.00593C24.03 9.33393 24 9.66793 24 9.99993" stroke="#005099" stroke-width="2" stroke-linecap="round" stroke-linejoin="round"/>
<path d="M24.09 9.00593C24.03 9.33393 24 9.66793 24 9.99993" stroke="#005099" stroke-width="2" stroke-linecap="round" stroke-linejoin="round"/>
<path d="M24.09 9.00593C24.03 9.33393 24 9.66793 24 9.99993" stroke="#005099" stroke-width="2" stroke-linecap="round" stroke-linejoin="round"/>
<path d="M35.174 5.75795C34.926 5.52995 34.662 5.32395 34.386 5.14195" stroke="#005099" stroke-width="2" stroke-linecap="round" stroke-linejoin="round"/>
<path d="M35.174 5.75795C34.926 5.52995 34.662 5.32395 34.386 5.14195" stroke="#005099" stroke-width="2" stroke-linecap="round" stroke-linejoin="round"/>
<path d="M35.174 5.75795C34.926 5.52995 34.662 5.32395 34.386 5.14195" stroke="#005099" stroke-width="2" stroke-linecap="round" stroke-linejoin="round"/>
<path d="M35.174 5.75795C34.926 5.52995 34.662 5.32395 34.386 5.14195" stroke="#005099" stroke-width="2" stroke-linecap="round" stroke-linejoin="round"/>
<path d="M28.762 4.22597C28.398 4.31997 28.05 4.45597 27.71 4.61997" stroke="#005099" stroke-width="2" stroke-linecap="round" stroke-linejoin="round"/>
<path d="M28.762 4.22597C28.398 4.31997 28.05 4.45597 27.71 4.61997" stroke="#005099" stroke-width="2" stroke-linecap="round" stroke-linejoin="round"/>
<path d="M28.762 4.22597C28.398 4.31997 28.05 4.45597 27.71 4.61997" stroke="#005099" stroke-width="2" stroke-linecap="round" stroke-linejoin="round"/>
<path d="M28.762 4.22597C28.398 4.31997 28.05 4.45597 27.71 4.61997" stroke="#005099" stroke-width="2" stroke-linecap="round" stroke-linejoin="round"/>
<path d="M13.614 5.14195C13.338 5.32395 13.074 5.52995 12.826 5.75795" stroke="#005099" stroke-width="2" stroke-linecap="round" stroke-linejoin="round"/>
<path d="M13.614 5.14195C13.338 5.32395 13.074 5.52995 12.826 5.75795" stroke="#005099" stroke-width="2" stroke-linecap="round" stroke-linejoin="round"/>
<path d="M13.614 5.14195C13.338 5.32395 13.074 5.52995 12.826 5.75795" stroke="#005099" stroke-width="2" stroke-linecap="round" stroke-linejoin="round"/>
<path d="M13.614 5.14195C13.338 5.32395 13.074 5.52995 12.826 5.75795" stroke="#005099" stroke-width="2" stroke-linecap="round" stroke-linejoin="round"/>
<path d="M19.238 4.22597C19.602 4.31997 19.95 4.45597 20.29 4.61997" stroke="#005099" stroke-width="2" stroke-linecap="round" stroke-linejoin="round"/>
<path d="M19.238 4.22597C19.602 4.31997 19.95 4.45597 20.29 4.61997" stroke="#005099" stroke-width="2" stroke-linecap="round" stroke-linejoin="round"/>
<path d="M19.238 4.22597C19.602 4.31997 19.95 4.45597 20.29 4.61997" stroke="#005099" stroke-width="2" stroke-linecap="round" stroke-linejoin="round"/>
<path d="M19.238 4.22597C19.602 4.31997 19.95 4.45597 20.29 4.61997" stroke="#005099" stroke-width="2" stroke-linecap="round" stroke-linejoin="round"/>
<path d="M24 26V24" stroke="#005099" stroke-width="2" stroke-linecap="round" stroke-linejoin="round"/>
<path d="M24 26V24" stroke="#005099" stroke-width="2" stroke-linecap="round" stroke-linejoin="round"/>
<path d="M24 26V24" stroke="#005099" stroke-width="2" stroke-linecap="round" stroke-linejoin="round"/>
<path d="M24 26V24" stroke="#005099" stroke-width="2" stroke-linecap="round" stroke-linejoin="round"/>
<path d="M24 16V18" stroke="#005099" stroke-width="2" stroke-linecap="round" stroke-linejoin="round"/>
<path d="M24 16V18" stroke="#005099" stroke-width="2" stroke-linecap="round" stroke-linejoin="round"/>
<path d="M24 16V18" stroke="#005099" stroke-width="2" stroke-linecap="round" stroke-linejoin="round"/>
<path d="M24 16V18" stroke="#005099" stroke-width="2" stroke-linecap="round" stroke-linejoin="round"/>
</svg>
