<svg width="48" height="48" viewBox="0 0 48 48" fill="none" xmlns="http://www.w3.org/2000/svg">
<path d="M17.2191 13.9958H24.7783" stroke="#005099" stroke-width="2" stroke-linecap="round" stroke-linejoin="round"/>
<path d="M17.2191 13.9958H24.7783" stroke="#005099" stroke-width="2" stroke-linecap="round" stroke-linejoin="round"/>
<path d="M17.2191 13.9958H24.7783" stroke="#005099" stroke-width="2" stroke-linecap="round" stroke-linejoin="round"/>
<path d="M17.2191 13.9958H24.7783" stroke="#005099" stroke-width="2" stroke-linecap="round" stroke-linejoin="round"/>
<path d="M17.9975 24H11.995V38.0058" stroke="#005099" stroke-width="2" stroke-linecap="round" stroke-linejoin="round"/>
<path d="M17.9975 24H11.995V38.0058" stroke="#005099" stroke-width="2" stroke-linecap="round" stroke-linejoin="round"/>
<path d="M17.9975 24H11.995V38.0058" stroke="#005099" stroke-width="2" stroke-linecap="round" stroke-linejoin="round"/>
<path d="M17.9975 24H11.995V38.0058" stroke="#005099" stroke-width="2" stroke-linecap="round" stroke-linejoin="round"/>
<path d="M11.995 38.0058H3.9917V15.1203C3.9917 13.7476 4.7362 12.4829 5.93651 11.8169L19.164 4.46783C20.3057 3.83348 21.6939 3.83348 22.8355 4.46783L36.0631 11.8169C37.2623 12.4837 38.0059 13.7481 38.0059 15.1203V17.9975" stroke="#005099" stroke-width="2" stroke-linecap="round" stroke-linejoin="round"/>
<path d="M11.995 38.0058H3.9917V15.1203C3.9917 13.7476 4.7362 12.4829 5.93651 11.8169L19.164 4.46783C20.3057 3.83348 21.6939 3.83348 22.8355 4.46783L36.0631 11.8169C37.2623 12.4837 38.0059 13.7481 38.0059 15.1203V17.9975" stroke="#005099" stroke-width="2" stroke-linecap="round" stroke-linejoin="round"/>
<path d="M11.995 38.0058H3.9917V15.1203C3.9917 13.7476 4.7362 12.4829 5.93651 11.8169L19.164 4.46783C20.3057 3.83348 21.6939 3.83348 22.8355 4.46783L36.0631 11.8169C37.2623 12.4837 38.0059 13.7481 38.0059 15.1203V17.9975" stroke="#005099" stroke-width="2" stroke-linecap="round" stroke-linejoin="round"/>
<path d="M11.995 38.0058H3.9917V15.1203C3.9917 13.7476 4.7362 12.4829 5.93651 11.8169L19.164 4.46783C20.3057 3.83348 21.6939 3.83348 22.8355 4.46783L36.0631 11.8169C37.2623 12.4837 38.0059 13.7481 38.0059 15.1203V17.9975" stroke="#005099" stroke-width="2" stroke-linecap="round" stroke-linejoin="round"/>
<path d="M44.0083 35.6048C44.0083 33.3948 42.2167 31.6031 40.0066 31.6031H24C21.7899 31.6031 19.9983 33.3948 19.9983 35.6048" stroke="#005099" stroke-width="2" stroke-linecap="round" stroke-linejoin="round"/>
<path d="M44.0083 35.6048C44.0083 33.3948 42.2167 31.6031 40.0066 31.6031H24C21.7899 31.6031 19.9983 33.3948 19.9983 35.6048" stroke="#005099" stroke-width="2" stroke-linecap="round" stroke-linejoin="round"/>
<path d="M44.0083 35.6048C44.0083 33.3948 42.2167 31.6031 40.0066 31.6031H24C21.7899 31.6031 19.9983 33.3948 19.9983 35.6048" stroke="#005099" stroke-width="2" stroke-linecap="round" stroke-linejoin="round"/>
<path d="M44.0083 35.6048C44.0083 33.3948 42.2167 31.6031 40.0066 31.6031H24C21.7899 31.6031 19.9983 33.3948 19.9983 35.6048" stroke="#005099" stroke-width="2" stroke-linecap="round" stroke-linejoin="round"/>
<path d="M19.9983 35.6049V42.0075C19.9983 43.1126 20.8941 44.0084 21.9991 44.0084H23.9799C25.085 44.0084 25.9808 43.1126 25.9808 42.0075V40.685H38.0258V42.0075C38.0258 43.1126 38.9216 44.0084 40.0266 44.0084H42.0075C43.1125 44.0084 44.0083 43.1126 44.0083 42.0075V35.6049" stroke="#005099" stroke-width="2" stroke-linecap="round" stroke-linejoin="round"/>
<path d="M19.9983 35.6049V42.0075C19.9983 43.1126 20.8941 44.0084 21.9991 44.0084H23.9799C25.085 44.0084 25.9808 43.1126 25.9808 42.0075V40.685H38.0258V42.0075C38.0258 43.1126 38.9216 44.0084 40.0266 44.0084H42.0075C43.1125 44.0084 44.0083 43.1126 44.0083 42.0075V35.6049" stroke="#005099" stroke-width="2" stroke-linecap="round" stroke-linejoin="round"/>
<path d="M19.9983 35.6049V42.0075C19.9983 43.1126 20.8941 44.0084 21.9991 44.0084H23.9799C25.085 44.0084 25.9808 43.1126 25.9808 42.0075V40.685H38.0258V42.0075C38.0258 43.1126 38.9216 44.0084 40.0266 44.0084H42.0075C43.1125 44.0084 44.0083 43.1126 44.0083 42.0075V35.6049" stroke="#005099" stroke-width="2" stroke-linecap="round" stroke-linejoin="round"/>
<path d="M19.9983 35.6049V42.0075C19.9983 43.1126 20.8941 44.0084 21.9991 44.0084H23.9799C25.085 44.0084 25.9808 43.1126 25.9808 42.0075V40.685H38.0258V42.0075C38.0258 43.1126 38.9216 44.0084 40.0266 44.0084H42.0075C43.1125 44.0084 44.0083 43.1126 44.0083 42.0075V35.6049" stroke="#005099" stroke-width="2" stroke-linecap="round" stroke-linejoin="round"/>
<path d="M27.4754 36.2051H24.4841" stroke="#005099" stroke-width="2" stroke-linecap="round" stroke-linejoin="round"/>
<path d="M27.4754 36.2051H24.4841" stroke="#005099" stroke-width="2" stroke-linecap="round" stroke-linejoin="round"/>
<path d="M27.4754 36.2051H24.4841" stroke="#005099" stroke-width="2" stroke-linecap="round" stroke-linejoin="round"/>
<path d="M27.4754 36.2051H24.4841" stroke="#005099" stroke-width="2" stroke-linecap="round" stroke-linejoin="round"/>
<path d="M39.5225 36.2051H36.5312" stroke="#005099" stroke-width="2" stroke-linecap="round" stroke-linejoin="round"/>
<path d="M39.5225 36.2051H36.5312" stroke="#005099" stroke-width="2" stroke-linecap="round" stroke-linejoin="round"/>
<path d="M39.5225 36.2051H36.5312" stroke="#005099" stroke-width="2" stroke-linecap="round" stroke-linejoin="round"/>
<path d="M39.5225 36.2051H36.5312" stroke="#005099" stroke-width="2" stroke-linecap="round" stroke-linejoin="round"/>
<path d="M41.0171 31.4771L44.0083 29.9825" stroke="#005099" stroke-width="2" stroke-linecap="round" stroke-linejoin="round"/>
<path d="M41.0171 31.4771L44.0083 29.9825" stroke="#005099" stroke-width="2" stroke-linecap="round" stroke-linejoin="round"/>
<path d="M41.0171 31.4771L44.0083 29.9825" stroke="#005099" stroke-width="2" stroke-linecap="round" stroke-linejoin="round"/>
<path d="M41.0171 31.4771L44.0083 29.9825" stroke="#005099" stroke-width="2" stroke-linecap="round" stroke-linejoin="round"/>
<path d="M22.9995 31.4771L19.9983 29.9825" stroke="#005099" stroke-width="2" stroke-linecap="round" stroke-linejoin="round"/>
<path d="M22.9995 31.4771L19.9983 29.9825" stroke="#005099" stroke-width="2" stroke-linecap="round" stroke-linejoin="round"/>
<path d="M22.9995 31.4771L19.9983 29.9825" stroke="#005099" stroke-width="2" stroke-linecap="round" stroke-linejoin="round"/>
<path d="M22.9995 31.4771L19.9983 29.9825" stroke="#005099" stroke-width="2" stroke-linecap="round" stroke-linejoin="round"/>
<path d="M27.1373 24C25.7485 24.0035 24.5435 24.9594 24.2241 26.311L22.9556 31.7332L24.2241 26.311C24.5435 24.9594 25.7485 24.0035 27.1373 24H36.8694C38.2582 24.0035 39.4632 24.9594 39.7826 26.311L41.0511 31.7332" stroke="#005099" stroke-width="2" stroke-linecap="round" stroke-linejoin="round"/>
<path d="M27.1373 24C25.7485 24.0035 24.5435 24.9594 24.2241 26.311L22.9556 31.7332L24.2241 26.311C24.5435 24.9594 25.7485 24.0035 27.1373 24H36.8694C38.2582 24.0035 39.4632 24.9594 39.7826 26.311L41.0511 31.7332" stroke="#005099" stroke-width="2" stroke-linecap="round" stroke-linejoin="round"/>
<path d="M27.1373 24C25.7485 24.0035 24.5435 24.9594 24.2241 26.311L22.9556 31.7332L24.2241 26.311C24.5435 24.9594 25.7485 24.0035 27.1373 24H36.8694C38.2582 24.0035 39.4632 24.9594 39.7826 26.311L41.0511 31.7332" stroke="#005099" stroke-width="2" stroke-linecap="round" stroke-linejoin="round"/>
<path d="M27.1373 24C25.7485 24.0035 24.5435 24.9594 24.2241 26.311L22.9556 31.7332L24.2241 26.311C24.5435 24.9594 25.7485 24.0035 27.1373 24H36.8694C38.2582 24.0035 39.4632 24.9594 39.7826 26.311L41.0511 31.7332" stroke="#005099" stroke-width="2" stroke-linecap="round" stroke-linejoin="round"/>
</svg>
