<svg width="48" height="48" viewBox="0 0 48 48" fill="none" xmlns="http://www.w3.org/2000/svg">
<g clip-path="url(#clip0_1_7987)">
<path d="M24 20V10" stroke="#005099" stroke-width="2" stroke-linecap="round" stroke-linejoin="round"/>
<path d="M24 20V10" stroke="#005099" stroke-width="2" stroke-linecap="round" stroke-linejoin="round"/>
<path d="M24 20V10" stroke="#005099" stroke-width="2" stroke-linecap="round" stroke-linejoin="round"/>
<path d="M24 20V10" stroke="#005099" stroke-width="2" stroke-linecap="round" stroke-linejoin="round"/>
<path d="M24 38V28" stroke="#005099" stroke-width="2" stroke-linecap="round" stroke-linejoin="round"/>
<path d="M24 38V28" stroke="#005099" stroke-width="2" stroke-linecap="round" stroke-linejoin="round"/>
<path d="M24 38V28" stroke="#005099" stroke-width="2" stroke-linecap="round" stroke-linejoin="round"/>
<path d="M24 38V28" stroke="#005099" stroke-width="2" stroke-linecap="round" stroke-linejoin="round"/>
<path d="M26.8199 21.18L33.8999 14.1" stroke="#005099" stroke-width="2" stroke-linecap="round" stroke-linejoin="round"/>
<path d="M26.8199 21.18L33.8999 14.1" stroke="#005099" stroke-width="2" stroke-linecap="round" stroke-linejoin="round"/>
<path d="M26.8199 21.18L33.8999 14.1" stroke="#005099" stroke-width="2" stroke-linecap="round" stroke-linejoin="round"/>
<path d="M26.8199 21.18L33.8999 14.1" stroke="#005099" stroke-width="2" stroke-linecap="round" stroke-linejoin="round"/>
<path d="M14.1 33.8999L21.18 26.8199" stroke="#005099" stroke-width="2" stroke-linecap="round" stroke-linejoin="round"/>
<path d="M14.1 33.8999L21.18 26.8199" stroke="#005099" stroke-width="2" stroke-linecap="round" stroke-linejoin="round"/>
<path d="M14.1 33.8999L21.18 26.8199" stroke="#005099" stroke-width="2" stroke-linecap="round" stroke-linejoin="round"/>
<path d="M14.1 33.8999L21.18 26.8199" stroke="#005099" stroke-width="2" stroke-linecap="round" stroke-linejoin="round"/>
<path d="M28 24H38" stroke="#005099" stroke-width="2" stroke-linecap="round" stroke-linejoin="round"/>
<path d="M28 24H38" stroke="#005099" stroke-width="2" stroke-linecap="round" stroke-linejoin="round"/>
<path d="M28 24H38" stroke="#005099" stroke-width="2" stroke-linecap="round" stroke-linejoin="round"/>
<path d="M28 24H38" stroke="#005099" stroke-width="2" stroke-linecap="round" stroke-linejoin="round"/>
<path d="M10 24H20" stroke="#005099" stroke-width="2" stroke-linecap="round" stroke-linejoin="round"/>
<path d="M10 24H20" stroke="#005099" stroke-width="2" stroke-linecap="round" stroke-linejoin="round"/>
<path d="M10 24H20" stroke="#005099" stroke-width="2" stroke-linecap="round" stroke-linejoin="round"/>
<path d="M10 24H20" stroke="#005099" stroke-width="2" stroke-linecap="round" stroke-linejoin="round"/>
<path d="M26.8199 26.8199L33.8999 33.8999" stroke="#005099" stroke-width="2" stroke-linecap="round" stroke-linejoin="round"/>
<path d="M26.8199 26.8199L33.8999 33.8999" stroke="#005099" stroke-width="2" stroke-linecap="round" stroke-linejoin="round"/>
<path d="M26.8199 26.8199L33.8999 33.8999" stroke="#005099" stroke-width="2" stroke-linecap="round" stroke-linejoin="round"/>
<path d="M26.8199 26.8199L33.8999 33.8999" stroke="#005099" stroke-width="2" stroke-linecap="round" stroke-linejoin="round"/>
<path d="M14.1 14.1L21.18 21.18" stroke="#005099" stroke-width="2" stroke-linecap="round" stroke-linejoin="round"/>
<path d="M14.1 14.1L21.18 21.18" stroke="#005099" stroke-width="2" stroke-linecap="round" stroke-linejoin="round"/>
<path d="M14.1 14.1L21.18 21.18" stroke="#005099" stroke-width="2" stroke-linecap="round" stroke-linejoin="round"/>
<path d="M14.1 14.1L21.18 21.18" stroke="#005099" stroke-width="2" stroke-linecap="round" stroke-linejoin="round"/>
<path d="M38.1422 9.85786C45.9527 17.6683 45.9527 30.3317 38.1422 38.1421C30.3317 45.9525 17.6684 45.9525 9.85798 38.1421C2.0475 30.3316 2.0475 17.6683 9.85798 9.85786C17.6685 2.04738 30.3318 2.04738 38.1422 9.85786" stroke="#005099" stroke-width="2" stroke-linecap="round" stroke-linejoin="round"/>
<path d="M38.1422 9.85786C45.9527 17.6683 45.9527 30.3317 38.1422 38.1421C30.3317 45.9525 17.6684 45.9525 9.85798 38.1421C2.0475 30.3316 2.0475 17.6683 9.85798 9.85786C17.6685 2.04738 30.3318 2.04738 38.1422 9.85786" stroke="#005099" stroke-width="2" stroke-linecap="round" stroke-linejoin="round"/>
<path d="M38.1422 9.85786C45.9527 17.6683 45.9527 30.3317 38.1422 38.1421C30.3317 45.9525 17.6684 45.9525 9.85798 38.1421C2.0475 30.3316 2.0475 17.6683 9.85798 9.85786C17.6685 2.04738 30.3318 2.04738 38.1422 9.85786" stroke="#005099" stroke-width="2" stroke-linecap="round" stroke-linejoin="round"/>
<path d="M38.1422 9.85786C45.9527 17.6683 45.9527 30.3317 38.1422 38.1421C30.3317 45.9525 17.6684 45.9525 9.85798 38.1421C2.0475 30.3316 2.0475 17.6683 9.85798 9.85786C17.6685 2.04738 30.3318 2.04738 38.1422 9.85786" stroke="#005099" stroke-width="2" stroke-linecap="round" stroke-linejoin="round"/>
<path d="M33.8994 14.1005C39.3667 19.5678 39.3667 28.4321 33.8994 33.8995C28.432 39.3668 19.5677 39.3668 14.1004 33.8995C8.63304 28.4321 8.63304 19.5678 14.1004 14.1005C19.5677 8.63316 28.432 8.63316 33.8994 14.1005" stroke="#005099" stroke-width="2" stroke-linecap="round" stroke-linejoin="round"/>
<path d="M33.8994 14.1005C39.3667 19.5678 39.3667 28.4321 33.8994 33.8995C28.432 39.3668 19.5677 39.3668 14.1004 33.8995C8.63304 28.4321 8.63304 19.5678 14.1004 14.1005C19.5677 8.63316 28.432 8.63316 33.8994 14.1005" stroke="#005099" stroke-width="2" stroke-linecap="round" stroke-linejoin="round"/>
<path d="M33.8994 14.1005C39.3667 19.5678 39.3667 28.4321 33.8994 33.8995C28.432 39.3668 19.5677 39.3668 14.1004 33.8995C8.63304 28.4321 8.63304 19.5678 14.1004 14.1005C19.5677 8.63316 28.432 8.63316 33.8994 14.1005" stroke="#005099" stroke-width="2" stroke-linecap="round" stroke-linejoin="round"/>
<path d="M33.8994 14.1005C39.3667 19.5678 39.3667 28.4321 33.8994 33.8995C28.432 39.3668 19.5677 39.3668 14.1004 33.8995C8.63304 28.4321 8.63304 19.5678 14.1004 14.1005C19.5677 8.63316 28.432 8.63316 33.8994 14.1005" stroke="#005099" stroke-width="2" stroke-linecap="round" stroke-linejoin="round"/>
<path d="M26.8284 21.1716C28.3905 22.7337 28.3905 25.2663 26.8284 26.8284C25.2663 28.3905 22.7337 28.3905 21.1716 26.8284C19.6095 25.2663 19.6095 22.7337 21.1716 21.1716C22.7337 19.6095 25.2663 19.6095 26.8284 21.1716" stroke="#005099" stroke-width="2" stroke-linecap="round" stroke-linejoin="round"/>
<path d="M26.8284 21.1716C28.3905 22.7337 28.3905 25.2663 26.8284 26.8284C25.2663 28.3905 22.7337 28.3905 21.1716 26.8284C19.6095 25.2663 19.6095 22.7337 21.1716 21.1716C22.7337 19.6095 25.2663 19.6095 26.8284 21.1716" stroke="#005099" stroke-width="2" stroke-linecap="round" stroke-linejoin="round"/>
<path d="M26.8284 21.1716C28.3905 22.7337 28.3905 25.2663 26.8284 26.8284C25.2663 28.3905 22.7337 28.3905 21.1716 26.8284C19.6095 25.2663 19.6095 22.7337 21.1716 21.1716C22.7337 19.6095 25.2663 19.6095 26.8284 21.1716" stroke="#005099" stroke-width="2" stroke-linecap="round" stroke-linejoin="round"/>
<path d="M26.8284 21.1716C28.3905 22.7337 28.3905 25.2663 26.8284 26.8284C25.2663 28.3905 22.7337 28.3905 21.1716 26.8284C19.6095 25.2663 19.6095 22.7337 21.1716 21.1716C22.7337 19.6095 25.2663 19.6095 26.8284 21.1716" stroke="#005099" stroke-width="2" stroke-linecap="round" stroke-linejoin="round"/>
</g>
<defs>
<clipPath id="clip0_1_7987">
<rect width="48" height="48" fill="white"/>
</clipPath>
</defs>
</svg>
